<?xml version="1.0" encoding="UTF-8"?>
<!DOCTYPE svg PUBLIC "-//W3C//DTD SVG 1.1//EN" "http://www.w3.org/Graphics/SVG/1.1/DTD/svg11.dtd">
<!-- Creator: CorelDRAW 2020 (64-Bit) -->
<svg xmlns="http://www.w3.org/2000/svg" xml:space="preserve" width="147px" height="135px" version="1.1" style="shape-rendering:geometricPrecision; text-rendering:geometricPrecision; image-rendering:optimizeQuality; fill-rule:evenodd; clip-rule:evenodd"
viewBox="0 0 26.36 24.34"
 xmlns:xlink="http://www.w3.org/1999/xlink"
 xmlns:xodm="http://www.corel.com/coreldraw/odm/2003">
 <defs>
  <style type="text/css">
   <![CDATA[
    .fil0 {fill:#C90000}
   ]]>
  </style>
 </defs>
 <g id="Layer_x0020_1">
  <metadata id="CorelCorpID_0Corel-Layer"/>
  <path class="fil0" d="M0 9.01l0 1.65 2.95 7.74c0.48,1.28 1.08,2.57 1.5,3.86 0.31,0.94 -0.3,0.63 1.36,1.29 0.48,0.19 1.53,0.52 1.9,0.79l0.44 0c0.5,-0.66 2.17,-5.14 2.57,-6.24 0.32,-0.91 -0.29,-0.92 0.05,-1.78l1.79 -4.74c1.16,-0.03 0.97,-0.32 1.76,-0.43 0.9,-0.12 1.07,0 1.78,0.2 -0.01,0.55 -0.13,0.89 0.29,1.17 0.11,0.07 0.95,0.39 1.07,0.42 0.93,0.2 1.09,-0.81 1.36,-1.5 0.25,-0.63 0.84,-1.65 0.17,-2.13 -0.13,-0.09 -0.9,-0.42 -1.07,-0.44 -0.59,-0.09 -0.72,0.23 -1.05,0.4l-0.8 -0.38c-0.21,-0.4 0.07,-0.51 -0.35,-0.8l-2.36 -0.98c-2.52,-1 -4.18,-2.21 -6.96,-0.89 -0.61,0.3 -2.5,1.39 -2.18,2.02 0.11,0.1 -0.05,0.15 0.33,0.11 0.15,-0.01 0.17,-0.05 0.26,-0.1 1.41,-0.83 2.43,-0.65 4,0.08 1.28,0.6 0.44,1.07 0.97,1.93 0.31,0.51 -0.07,1.01 -0.5,2.09 -0.28,0.71 -0.55,1.42 -0.82,2.09 -0.7,1.76 -0.35,1.28 -1.27,1.62 -0.54,0.21 -0.67,0.99 -1.01,1.9l-0.68 1.87c-0.01,0.01 -0.03,0.04 -0.03,0.05 -0.01,0.02 -0.03,0.05 -0.04,0.06l-0.07 0.1c-0.44,-1.35 -1.86,-4.8 -2.49,-6.4 -0.88,-2.26 -2.11,-4.47 -0.11,-6.48 0.42,-0.43 0.68,-0.62 1.31,-0.89l4.74 -1.86c2.09,-0.82 4.21,-1.7 6.32,-2.46 1.27,-0.46 2.56,-0.3 3.55,0.37 0.95,0.64 1.25,1.32 1.77,2.63l3.69 9.49c0.47,1.24 0.86,2.11 0.27,3.56 -0.42,1.03 -1.14,1.75 -2.22,2.17 -0.97,0.37 -2.29,1 -3.24,1.23l-0.01 -8.99c-0.28,0.53 -0.63,1.12 -1.53,0.95 -0.89,-0.16 -0.75,-0.5 -1.99,-0.39 1.15,0.39 0.84,2.77 0.81,4.07 -0.67,-0.14 -1.06,-0.49 -1.98,-0.43 -3.35,0.22 -4.43,5.17 -1.51,7.12 0.5,0.34 1.18,0.49 1.92,0.41 0.58,-0.06 0.71,-0.39 1.08,-1.29 -0.52,-0.23 -0.95,-0.17 -1.29,-0.57 -0.25,-0.29 -0.44,-0.86 -0.49,-1.36 -0.3,-2.97 1.68,-3.25 2.16,-2.15 0.24,0.54 0.12,4.5 0.12,5.26l3.46 -0.01c-0.17,-0.34 -0.35,-0.39 -0.52,-0.82 1.12,-1.07 5.49,-0.92 6.86,-4.81 0.14,-0.4 0.17,-0.88 0.32,-1.23l0 -1.33c-0.18,-0.33 -0.22,-0.83 -0.37,-1.22l-1.3 -3.35c-0.59,-1.52 -1.15,-2.91 -1.73,-4.43 -0.91,-2.37 -1.46,-4.66 -3.4,-5.92 -0.28,-0.18 -0.67,-0.4 -1.04,-0.54l-1.1 -0.34c-0.01,-0.03 -0.04,-0.02 -0.06,-0.03l-1.66 0c-0.14,0.09 0.1,-0.02 -0.21,0.11l-2.09 0.72c-2.07,0.82 -9.89,3.71 -10.96,4.43 -0.94,0.64 -1.66,1.53 -2.05,2.59l-0.39 1.16z"/>
 </g>
</svg>
