<?xml version="1.0" encoding="UTF-8"?>
<!DOCTYPE svg PUBLIC "-//W3C//DTD SVG 1.1//EN" "http://www.w3.org/Graphics/SVG/1.1/DTD/svg11.dtd">
<!-- Creator: CorelDRAW 2020 (64-Bit) -->
<svg xmlns="http://www.w3.org/2000/svg" xml:space="preserve" width="614px" height="135px" version="1.1" style="shape-rendering:geometricPrecision; text-rendering:geometricPrecision; image-rendering:optimizeQuality; fill-rule:evenodd; clip-rule:evenodd"
viewBox="0 0 460.86 101.67"
 xmlns:xlink="http://www.w3.org/1999/xlink"
 xmlns:xodm="http://www.corel.com/coreldraw/odm/2003">
 <defs>
  <style type="text/css">
   <![CDATA[
    .fil2 {fill:#C90000}
    .fil0 {fill:#332C2B;fill-rule:nonzero}
    .fil1 {fill:#CF0000;fill-rule:nonzero}
   ]]>
  </style>
 </defs>
 <g id="Layer_x0020_1">
  <metadata id="CorelCorpID_0Corel-Layer"/>
  <g id="_2683281750352">
   <path class="fil0" d="M147.96 45.36l-10.09 0 0 31.76 -7.97 0 0 -31.76 -10.04 0 0 -7.11 28.1 0 0 7.11zm14.61 32.42c-4.21,0 -7.51,-1.29 -9.92,-3.88 -2.4,-2.59 -3.61,-6.11 -3.61,-10.55 0,-4.59 1.25,-8.18 3.75,-10.77 2.5,-2.6 5.88,-3.89 10.12,-3.89 4.19,0 7.48,1.29 9.86,3.89 2.38,2.59 3.58,6.01 3.58,10.28 0,4.61 -1.23,8.24 -3.69,10.92 -2.45,2.67 -5.82,4 -10.09,4zm0.21 -22.54c-1.83,0 -3.26,0.69 -4.28,2.09 -1.02,1.39 -1.53,3.36 -1.53,5.91 0,5.33 1.95,7.99 5.86,7.99 3.73,0 5.59,-2.74 5.59,-8.21 0,-5.19 -1.88,-7.78 -5.64,-7.78zm39.9 10.44l-16.46 0c0.27,4.03 2.57,6.05 6.93,6.05 2.76,0 5.2,-0.72 7.31,-2.16l0 6.16c-2.33,1.37 -5.37,2.05 -9.1,2.05 -4.07,0 -7.23,-1.24 -9.48,-3.73 -2.25,-2.48 -3.38,-5.94 -3.38,-10.38 0,-4.61 1.22,-8.25 3.65,-10.95 2.43,-2.69 5.42,-4.03 8.97,-4.03 3.68,0 6.53,1.2 8.54,3.6 2.01,2.4 3.02,5.66 3.02,9.79l0 3.6zm-7.22 -5.28c0,-3.96 -1.46,-5.94 -4.38,-5.94 -1.26,0 -2.33,0.57 -3.24,1.71 -0.92,1.12 -1.47,2.54 -1.67,4.23l9.29 0zm35.75 16.72l-9.34 0 -8.07 -13.77 -0.1 0 0 13.77 -7.77 0 0 -41.09 7.77 0 0 26.15 0.1 0 7.52 -12.82 9.24 0 -9.05 13.03 9.7 14.73zm22.53 0l-7.37 0 0 -3.99 -0.1 0c-1.69,3.1 -4.19,4.65 -7.51,4.65 -2.45,0 -4.38,-0.76 -5.78,-2.28 -1.4,-1.53 -2.1,-3.57 -2.1,-6.11 0,-5.38 2.9,-8.49 8.69,-9.32l6.85 -1c0,-3.03 -1.5,-4.55 -4.49,-4.55 -3,0 -5.86,0.98 -8.58,2.94l0 -6.44c1.09,-0.61 2.56,-1.16 4.45,-1.63 1.88,-0.47 3.6,-0.7 5.14,-0.7 7.2,0 10.8,3.95 10.8,11.84l0 16.59zm-7.32 -11.28l0 -1.88 -4.58 0.65c-2.53,0.37 -3.8,1.62 -3.8,3.78 0,0.97 0.31,1.78 0.93,2.41 0.61,0.62 1.45,0.93 2.5,0.93 1.46,0 2.65,-0.55 3.57,-1.67 0.92,-1.11 1.38,-2.52 1.38,-4.22zm36.47 11.28l-7.78 0 0 -15.43c0,-4.3 -1.39,-6.45 -4.19,-6.45 -1.35,0 -2.46,0.57 -3.33,1.71 -0.87,1.14 -1.31,2.58 -1.31,4.33l0 15.84 -7.77 0 0 -27.76 7.77 0 0 4.39 0.1 0c1.86,-3.38 4.56,-5.06 8.12,-5.06 5.59,0 8.39,3.81 8.39,11.44l0 16.99zm29.49 -3.17c0,5.15 -1.36,9.14 -4.06,11.97 -2.71,2.83 -6.64,4.24 -11.78,4.24 -3.41,0 -6.1,-0.53 -8.08,-1.61l0 -7.21c2.6,1.66 5.21,2.5 7.86,2.5 2.63,0 4.67,-0.77 6.12,-2.3 1.44,-1.53 2.17,-3.6 2.17,-6.22l0 -2.19 -0.1 0c-1.78,3.1 -4.4,4.65 -7.87,4.65 -3.22,0 -5.78,-1.25 -7.67,-3.74 -1.89,-2.48 -2.83,-5.83 -2.83,-10.02 0,-4.7 1.05,-8.43 3.15,-11.19 2.1,-2.76 4.88,-4.14 8.31,-4.14 3.08,0 5.37,1.29 6.91,3.89l0.1 0 0 -3.22 7.77 0 0 24.59zm-7.67 -10.17l0 -2.2c0,-1.75 -0.47,-3.25 -1.42,-4.48 -0.95,-1.24 -2.17,-1.86 -3.69,-1.86 -1.72,0 -3.08,0.74 -4.06,2.22 -0.98,1.48 -1.48,3.57 -1.48,6.27 0,2.31 0.47,4.13 1.4,5.48 0.94,1.35 2.22,2.02 3.85,2.02 1.61,0 2.92,-0.68 3.91,-2.04 0.99,-1.37 1.49,-3.17 1.49,-5.41z"/>
   <path class="fil1" d="M318.26 77.12l0 -38.87 12.52 0c12.55,0 18.82,6.31 18.82,18.94 0,6.05 -1.72,10.89 -5.14,14.5 -3.42,3.62 -7.98,5.43 -13.68,5.43l-12.52 0zm7.98 -31.76l0 24.65 3.93 0c3.45,0 6.15,-1.14 8.11,-3.41 1.96,-2.28 2.94,-5.39 2.94,-9.31 0,-3.71 -0.97,-6.62 -2.92,-8.75 -1.94,-2.12 -4.66,-3.18 -8.18,-3.18l-3.88 0zm31.02 -0.39c-1.31,0 -2.4,-0.43 -3.23,-1.29 -0.84,-0.86 -1.26,-1.91 -1.26,-3.16 0,-1.29 0.42,-2.34 1.26,-3.16 0.83,-0.81 1.92,-1.22 3.23,-1.22 1.33,0 2.41,0.41 3.25,1.22 0.83,0.82 1.24,1.87 1.24,3.16 0,1.29 -0.41,2.37 -1.24,3.2 -0.84,0.83 -1.92,1.25 -3.25,1.25zm3.83 32.15l-7.77 0 0 -27.76 7.77 0 0 27.76zm29.91 -3.17c0,5.15 -1.36,9.14 -4.06,11.97 -2.71,2.83 -6.64,4.24 -11.78,4.24 -3.41,0 -6.1,-0.53 -8.08,-1.61l0 -7.21c2.6,1.66 5.21,2.5 7.86,2.5 2.64,0 4.67,-0.77 6.12,-2.3 1.44,-1.53 2.17,-3.6 2.17,-6.22l0 -2.19 -0.1 0c-1.78,3.1 -4.4,4.65 -7.87,4.65 -3.22,0 -5.78,-1.25 -7.67,-3.74 -1.89,-2.48 -2.83,-5.83 -2.83,-10.02 0,-4.7 1.05,-8.43 3.15,-11.19 2.1,-2.76 4.88,-4.14 8.31,-4.14 3.08,0 5.37,1.29 6.91,3.89l0.1 0 0 -3.22 7.77 0 0 24.59zm-7.67 -10.17l0 -2.2c0,-1.75 -0.47,-3.25 -1.42,-4.48 -0.95,-1.24 -2.17,-1.86 -3.69,-1.86 -1.72,0 -3.08,0.74 -4.06,2.22 -0.98,1.48 -1.48,3.57 -1.48,6.27 0,2.31 0.47,4.13 1.4,5.48 0.94,1.35 2.22,2.02 3.85,2.02 1.61,0 2.92,-0.68 3.91,-2.04 0.99,-1.37 1.49,-3.17 1.49,-5.41zm16.73 -18.81c-1.31,0 -2.4,-0.43 -3.23,-1.29 -0.84,-0.86 -1.26,-1.91 -1.26,-3.16 0,-1.29 0.42,-2.34 1.26,-3.16 0.83,-0.81 1.92,-1.22 3.23,-1.22 1.33,0 2.41,0.41 3.25,1.22 0.83,0.82 1.24,1.87 1.24,3.16 0,1.29 -0.41,2.37 -1.24,3.2 -0.84,0.83 -1.92,1.25 -3.25,1.25zm3.84 32.15l-7.77 0 0 -27.76 7.77 0 0 27.76zm20.41 -0.34c-1.15,0.67 -2.88,1 -5.19,1 -5.49,0 -8.23,-3.13 -8.23,-9.4l0 -12.7 -4.09 0 0 -6.32 4.09 0 0 -6 7.77 -2.44 0 8.44 5.65 0 0 6.32 -5.65 0 0 11.22c0,2.89 1.04,4.33 3.12,4.33 0.82,0 1.67,-0.26 2.53,-0.79l0 6.34zm24 0.34l-7.36 0 0 -3.99 -0.11 0c-1.69,3.1 -4.18,4.65 -7.51,4.65 -2.44,0 -4.37,-0.76 -5.77,-2.28 -1.41,-1.53 -2.11,-3.57 -2.11,-6.11 0,-5.38 2.9,-8.49 8.7,-9.32l6.85 -1c0,-3.03 -1.5,-4.55 -4.5,-4.55 -3,0 -5.86,0.98 -8.57,2.94l0 -6.44c1.08,-0.61 2.56,-1.16 4.45,-1.63 1.88,-0.47 3.6,-0.7 5.13,-0.7 7.2,0 10.8,3.95 10.8,11.84l0 16.59zm-7.31 -11.28l0 -1.88 -4.59 0.65c-2.53,0.37 -3.79,1.62 -3.79,3.78 0,0.97 0.31,1.78 0.92,2.41 0.62,0.62 1.45,0.93 2.5,0.93 1.47,0 2.66,-0.55 3.58,-1.67 0.91,-1.11 1.38,-2.52 1.38,-4.22zm19.86 11.28l-7.77 0 0 -41.09 7.77 0 0 41.09z"/>
  </g>
  <path class="fil2" d="M0 37.65l0 6.89 12.32 32.33c2.02,5.35 4.53,10.71 6.28,16.1 1.29,3.95 -1.28,2.62 5.65,5.38 2.03,0.81 6.43,2.19 7.94,3.32l1.83 0c2.1,-2.75 9.1,-21.49 10.74,-26.09 1.34,-3.78 -1.18,-3.83 0.25,-7.42l7.44 -19.79c4.88,-0.11 4.04,-1.33 7.37,-1.79 3.75,-0.52 4.46,-0.02 7.44,0.82 -0.06,2.32 -0.56,3.71 1.21,4.89 0.45,0.3 3.96,1.65 4.46,1.76 3.87,0.84 4.54,-3.39 5.68,-6.26 1.05,-2.65 3.49,-6.88 0.71,-8.92 -0.53,-0.38 -3.77,-1.73 -4.49,-1.84 -2.43,-0.38 -2.98,0.96 -4.37,1.68l-3.35 -1.57c-0.86,-1.67 0.29,-2.12 -1.44,-3.33l-9.85 -4.13c-10.54,-4.14 -17.48,-9.19 -29.08,-3.68 -2.57,1.22 -10.44,5.79 -9.11,8.42 0.46,0.42 -0.2,0.62 1.39,0.48 0.63,-0.06 0.68,-0.23 1.07,-0.46 5.87,-3.44 10.14,-2.68 16.69,0.36 5.36,2.49 1.84,4.45 4.06,8.07 1.3,2.11 -0.3,4.22 -2.09,8.73 -1.16,2.94 -2.28,5.9 -3.4,8.7 -2.94,7.38 -1.46,5.37 -5.3,6.79 -2.29,0.85 -2.8,4.11 -4.22,7.94l-2.87 7.78c-0.04,0.08 -0.1,0.18 -0.13,0.24 -0.04,0.07 -0.12,0.19 -0.14,0.24l-0.31 0.43c-1.82,-5.65 -7.77,-20.07 -10.38,-26.73 -3.7,-9.47 -8.82,-18.69 -0.47,-27.1 1.76,-1.77 2.82,-2.59 5.46,-3.72l19.79 -7.73c8.73,-3.45 17.61,-7.13 26.41,-10.3 5.31,-1.92 10.71,-1.24 14.84,1.55 3.96,2.66 5.23,5.52 7.39,10.97l15.4 39.64c1.97,5.19 3.59,8.85 1.14,14.87 -1.76,4.32 -4.77,7.33 -9.27,9.07 -4.07,1.57 -9.55,4.19 -13.55,5.15l-0.04 -37.55c-1.16,2.21 -2.61,4.66 -6.39,3.96 -3.72,-0.69 -3.13,-2.08 -8.32,-1.63 4.83,1.63 3.51,11.58 3.42,17 -2.81,-0.59 -4.44,-2.03 -8.3,-1.79 -13.98,0.9 -18.49,21.61 -6.32,29.75 2.12,1.42 4.94,2.03 8.04,1.71 2.43,-0.24 2.96,-1.62 4.52,-5.41 -2.17,-0.95 -3.99,-0.68 -5.4,-2.35 -1.04,-1.24 -1.85,-3.6 -2.06,-5.71 -1.24,-12.4 7.04,-13.56 9.05,-8.99 1,2.27 0.49,18.83 0.49,21.99l14.46 -0.05c-0.7,-1.41 -1.45,-1.61 -2.19,-3.42 4.7,-4.48 22.93,-3.85 28.65,-20.09 0.59,-1.67 0.73,-3.69 1.36,-5.15l0 -5.53c-0.75,-1.38 -0.94,-3.5 -1.55,-5.11l-5.44 -14c-2.44,-6.33 -4.78,-12.15 -7.21,-18.5 -3.8,-9.9 -6.1,-19.47 -14.2,-24.7 -1.2,-0.78 -2.82,-1.67 -4.37,-2.26l-4.57 -1.42c-0.05,-0.12 -0.19,-0.09 -0.27,-0.14l-6.93 0c-0.56,0.36 0.43,-0.07 -0.86,0.44l-8.73 3.04c-8.64,3.43 -41.31,15.47 -45.77,18.47 -3.96,2.68 -6.95,6.42 -8.6,10.85l-1.61 4.85z"/>
 </g>
</svg>
